<svg viewBox="44.92476 25.239864864864867 174.69 40" version="1.1" xmlns="http://www.w3.org/2000/svg" data-name="Layer 1" id="Layer_1" style="max-height: 500px" width="174.69" height="40">
  <defs>
    <style>
      .cls-1 {
        fill: #000;
      }

      .cls-1, .cls-2 {
        stroke-width: 0px;
      }

      .cls-2 {
        fill: #21759b;
      }
    </style>
  </defs>
  <path d="M120.9,49.7c0,4.6-4,7.7-9.6,7.7s-9-2.4-9.5-7.7v-.8c0,0,4.3,0,4.3,0v.6c.4,1.6,1.9,3.5,5.2,3.5s4.9-1.3,4.9-3.4-1.1-2.6-3.3-3.2l-3.5-.8c-4.5-1.1-6.7-3.5-6.7-7.3s3.7-7.5,8.7-7.5,8.5,2.3,8.6,7.3v.7s-4.6,0-4.6,0v-.6c-.2-1.7-1.9-3-4-3s-4,1.3-4,3.2,1.1,2.5,3.2,3l3.6.9c5.8,1.4,6.7,5.3,6.7,7.5Z" class="cls-1"/>
  <path d="M86.8,30.8c-3.2,0-6,1.2-8.2,3v-2.2h-4.7v32.8h1.2c1.2-.1,2.3-.5,3.3-1.1.2-.1.3-.3.3-.5v-8.8c2.2,1.8,5.1,3,8.2,3,7.3,0,12.9-5.8,12.9-13.1s-5.7-13.1-12.9-13.1ZM86.8,52c-4.4,0-7.8-3.5-7.8-8.1s3.4-8.1,7.8-8.1,7.8,3.6,7.8,8.1-3.4,8.1-7.8,8.1Z" class="cls-1"/>
  <path d="M188.3,31.1c-2.9,0-5.3,1.3-6.9,3.8v-3.3h-4.8v25.6h4.8v-9.8c0-3.5.7-11.7,6.8-11.7s1.7.1,3,.6l.8.3.9-4.5-.5-.2c-1.2-.6-2.9-.8-4.1-.8Z" class="cls-1"/>
  <path d="M214.1,31.5v14.1c0,5.4-3.8,7.3-7.3,7.3s-6.1-2.7-6.1-6.8v-14.6h-4.7v14.8c0,3.5,1,6.4,3,8.5,1.9,1.9,4.4,2.9,7.5,2.9s5.7-1,7.7-3.1v2.6h4.7v-25.6h-4.7Z" class="cls-1"/>
  <path d="M167.6,45.7c0,5.4-3.8,7.3-7.3,7.3s-6.1-2.7-6.1-6.8v-14.6h-4.7v14.8c0,3.5,1,6.4,3,8.5,1.9,1.9,4.4,2.9,7.5,2.9s5.7-1,7.7-3.1v2.6h4.7v-25.6h-4.7v14.1Z" class="cls-1"/>
  <path d="M58.1,30.4c-7.3,0-13,5.8-13,13.2s5.7,13.2,13,13.2,13-5.8,13-13.2-5.7-13.2-13-13.2ZM58.1,51.7c-4.4,0-7.8-3.6-7.8-8.1s3.4-8.1,7.8-8.1,7.8,3.6,7.8,8.1-3.4,8.1-7.8,8.1Z" class="cls-1"/>
  <path d="M146.8,42.4c0-6.4-5.2-11.6-11.6-11.6v5.2c3.6,0,6.4,2.9,6.4,6.4s-2.9,6.4-6.4,6.4-6.4-2.9-6.4-6.4h-5.2c0,6.4,5.2,11.6,11.6,11.6s11.6-5.2,11.6-11.6ZM132.7,30.8v-5.2c-5,0-9,4-9,9h5.2c0-2.1,1.7-3.8,3.8-3.8ZM141.6,55.4h-5.2c0,2.1-1.7,3.9-3.9,3.9s-3.9-1.7-3.9-3.9h-5.2c0,5,4,9,9,9s9-4,9-9Z" class="cls-2"/>
</svg>